<svg xmlns="http://www.w3.org/2000/svg" width="1200pt" height="1200pt" viewBox="0 0 1200 1200"><path d="m1167.8 777.98c0-127.71-90.82-234.7-211.33-259.58l0.003906-391.07c0-7.707-6.3164-14.02-14.02-14.02l-129.22-0.003906c-7.832 0-14.02 6.3164-14.02 14.02v406.74c-16.168 6.9492-31.578 15.41-45.852 25.262v-80.715c0-7.707-6.3164-14.02-14.02-14.02h-129.35c-7.832 0-14.02 6.3164-14.02 14.02v310.74c-0.37891 3.6641-0.75781 7.3281-1.0117 10.988h-44.844v-479.24c0-7.707-6.3164-14.02-14.02-14.02h-129.22c-7.832 0-14.02 6.3164-14.02 14.02v479.24h-45.852l-0.003907-208.04c0-7.707-6.3164-14.02-14.02-14.02h-129.35c-7.832 0-14.02 6.3164-14.02 14.02v208.04h-96c-7.832 0-14.02 6.3164-14.02 14.02 0 7.707 6.3164 14.02 14.02 14.02h500.71c3.6641 143.12 120.88 258.32 264.63 258.32 82.105 0 158.15-37.137 208.8-101.81 60.883-48.508 100.04-123.16 100.04-206.91zm-340.55-636.63h101.05v372.76c-8.4648-0.75781-16.926-1.2617-25.516-1.2617-26.273 0-51.535 3.9141-75.535 11.117zm-203.12 351.29h101.05v89.18c-10.609 9.6016-20.465 19.957-29.43 31.199-30.316 23.746-54.441 53.051-71.621 85.895zm-406.36 307.7v-194.02h101.05v194.02zm203.11 0v-465.22h101.05v465.22zm536.46 237.09c-30.441 13.895-63.789 21.223-98.398 21.223-130.61 0-236.84-106.23-236.84-236.84 0-7.707 0.50391-15.41 1.2617-22.988h0.75781v-6.5703c3.0312-24 9.3477-47.242 19.199-68.844-1.8945 9.0938-3.2852 18.191-4.168 27.535-0.88281 8.8438-1.3906 17.938-1.3906 27.031 0 146.15 118.86 265.01 265.01 265.01 9.0938 0 18.191-0.50391 27.031-1.3906 9.3477-1.0039 18.445-2.3945 27.539-4.1641zm78.316-63.535c-0.25391 0.125-0.37891 0.25391-0.63281 0.50391-18.57 12.504-38.906 22.484-60.633 29.305-1.0117 0.37891-2.1484 0.63281-3.1562 0.88281-5.9375 1.7695-11.875 3.2852-17.938 4.6719-1.6406 0.37891-3.4102 0.75781-5.1797 1.0117-5.6836 1.1367-11.367 1.8945-17.051 2.6523-1.8945 0.25391-3.7891 0.50391-5.6836 0.63281-7.4531 0.75781-14.906 1.1367-22.609 1.1367-130.61 0-236.84-106.23-236.84-236.84 0-7.5781 0.37891-15.156 1.1367-22.609 0.125-1.8945 0.50391-3.7891 0.63281-5.5586 0.63281-5.8086 1.5156-11.496 2.6523-17.18 0.37891-1.6406 0.63281-3.4102 1.0117-5.0508 1.3906-6.0625 2.9062-12.125 4.6719-18.062 0.25391-1.0117 0.63281-2.0195 0.88281-3.0312 6.9492-21.727 16.801-42.191 29.305-60.633 0.25391-0.25391 0.37891-0.63281 0.63281-0.88281 42.695-62.652 114.57-103.83 195.91-103.83 130.61 0 236.84 106.23 236.84 236.84 0 81.477-41.305 153.48-103.96 196.04zm-83.117-259.83c0 7.707 6.3164 14.02 14.02 14.02 7.707 0 14.02-6.3164 14.02-14.02 0-38.148-27.535-69.852-63.789-76.547v-18.441c0-7.707-6.3164-14.02-14.02-14.02-7.707 0-14.02 6.3164-14.02 14.02v18.441c-36.254 6.6953-63.789 38.398-63.789 76.547s27.535 69.852 63.789 76.547v98.652c-20.59-6.0625-35.746-25.012-35.746-47.496 0-7.707-6.3164-14.02-14.02-14.02-7.707 0-14.02 6.3164-14.02 14.02 0 38.148 27.535 69.852 63.789 76.547v18.441c0 7.707 6.3164 14.02 14.02 14.02 7.707 0 14.02-6.3164 14.02-14.02v-18.438c36.254-6.6953 63.789-38.398 63.789-76.547 0-38.148-27.535-69.852-63.789-76.547v-98.652c20.59 6.1875 35.746 25.008 35.746 47.492zm-99.535 0c0-22.484 15.156-41.43 35.746-47.496v94.988c-20.59-6.0586-35.746-24.883-35.746-47.492zm99.535 127.71c0 22.484-15.156 41.43-35.746 47.496v-94.988c20.59 6.0586 35.746 25.008 35.746 47.492zm-871.83-468.63c0 7.707 6.3164 14.02 14.02 14.02h90.062c7.832 0 14.02-6.3164 14.02-14.02l0.003906-147.03h34.484c5.8086 0 11.117-3.6641 13.137-9.0938 2.0195-5.4297 0.50391-11.621-3.9141-15.535l-93.477-82.359c-5.3047-4.6719-13.262-4.6719-18.57 0l-93.602 82.484c-4.4219 3.9141-5.9375 10.105-3.7891 15.535 2.0195 5.4297 7.3281 9.0938 13.137 9.0938h34.484zm59.117-224.71 56.336 49.641h-11.367c-7.832 0-14.02 6.3164-14.02 14.02v147.03h-61.895l-0.003907-147.03c0-7.707-6.3164-14.02-14.02-14.02l-11.367-0.003906z" fill="#05b347"></path></svg>