<svg xmlns="http://www.w3.org/2000/svg" width="1200pt" height="1200pt" viewBox="0 0 1200 1200"><path d="m613.7 611.65h-66.059c-14.496 0-26.305 11.797-26.305 26.305v66.059c0 14.496 11.797 26.305 26.305 26.305h66.059c14.496 0 26.305-11.797 26.305-26.305v-66.059c0-14.496-11.797-26.305-26.305-26.305zm-66.012 92.363-0.035156-66.012 66.012-0.035156 0.058593 66.012zm-231.34-92.363h-66.059c-14.496 0-26.293 11.797-26.293 26.305v66.059c0 14.496 11.797 26.305 26.293 26.305h66.059c14.496 0 26.305-11.797 26.305-26.305v-66.059c0-14.496-11.797-26.305-26.305-26.305zm-66.012 92.363-0.046875-66.012 66.012-0.035156 0.058594 66.012zm363.36 53.09h-66.059c-14.496 0-26.305 11.797-26.305 26.305v66.059c0 14.496 11.797 26.305 26.305 26.305h66.059c14.496 0 26.305-11.797 26.305-26.305v-66.059c0-14.496-11.797-26.305-26.305-26.305zm-66.012 92.363-0.035156-66.012 66.012-0.035156 0.058593 66.012zm-231.34 53.09h-66.059c-14.496 0-26.293 11.797-26.293 26.305v66.059c0 14.496 11.797 26.305 26.293 26.305h66.059c14.496 0 26.305-11.797 26.305-26.305v-66.059c0-14.496-11.797-26.305-26.305-26.305zm-66.012 92.363-0.046875-66.012 66.012-0.035156 0.058594 66.012zm66.012-237.8h-66.059c-14.496 0-26.293 11.797-26.293 26.305v66.059c0 14.496 11.797 26.305 26.293 26.305h66.059c14.496 0 26.305-11.797 26.305-26.305v-66.059c0-14.496-11.797-26.305-26.305-26.305zm-66.012 92.363-0.046875-66.012 66.012-0.035156 0.058594 66.012zm346.36-477.27h-329.34c-23.902 0-43.355 19.453-43.355 43.355v113.23c0 23.914 19.453 43.355 43.355 43.355h329.34c23.914 0 43.355-19.453 43.355-43.355v-113.23c0-23.902-19.453-43.355-43.355-43.355zm17.016 156.59c0 9.3828-7.6328 17.016-17.016 17.016h-329.34c-9.3828 0-17.016-7.6328-17.016-17.016v-113.23c0-9.3828 7.6328-17.016 17.016-17.016h329.34c9.3828 0 17.016 7.6328 17.016 17.016zm463.57-122.38h-272.79v-45.359c0-42.684-34.727-77.426-77.426-77.426h-9.3477v-31.906c0-28.152-22.906-51.059-51.059-51.059h-47.82l0.003906-127.5c0-7.2734-5.8906-13.176-13.176-13.176h-347.3c-7.2734 0-13.176 5.8906-13.176 13.176v127.51h-47.82c-28.152 0-51.059 22.906-51.059 51.059v31.906h-9.3594c-42.684 0-77.426 34.727-77.426 77.426v635.16c0 42.684 34.727 77.426 77.426 77.426h9.3594v15.289c0 28.152 22.906 51.059 51.059 51.059h469.3c28.152 0 51.059-22.906 51.059-51.059v-15.289h9.3477c42.684 0 77.426-34.727 77.426-77.426v-146.82h272.79c34.824 0 63.168-28.332 63.168-63.168v-316.66c0-34.824-28.332-63.168-63.168-63.168zm-930.96 640.88h-9.3594c-28.164 0-51.086-22.906-51.086-51.086v-635.16c0-28.164 22.906-51.086 51.086-51.086h9.3594zm125.22-960.97h320.96v211.18c-213.98 0-320.96-0.23047-320.96-0.69531zm419.83 1002.6c0 13.633-11.09 24.719-24.719 24.719h-469.27c-13.633 0-24.719-11.09-24.719-24.719v-837.21c0-13.633 11.09-24.719 24.719-24.719h47.82v69.793c0 0.98438 1.1992 0.69531-8.0273 0.69531-17.426 0-17.426 26.34 0 26.34h389.7c17.426 0 17.426-26.34 0-26.34h-8.0391v-70.488h47.82c13.633 0 24.719 11.09 24.719 24.719zm86.773-92.711c0 28.164-22.906 51.086-51.086 51.086h-9.3477v-737.32h9.3477c28.164 0 51.086 22.906 51.086 51.086v635.16zm335.95-209.99c0 20.305-16.523 36.816-36.816 36.816h-272.79v-232.7h309.6zm0-222.23h-309.6v-36.227h309.6zm0-62.566h-309.6v-68.676h272.79c20.305 0 36.816 16.523 36.816 36.816zm-684.47-317.46h114.23c17.426 0 17.426 26.34 0 26.34h-114.23c-17.426 0-17.426-26.34 0-26.34zm0-48.156h114.23c17.426 0 17.426 26.34 0 26.34h-114.23c-17.426 0-17.426-26.34 0-26.34zm-109.44 79.402c59.496 0 57.227 0.57422 61.223-1.3672 0.35938 0 7.4297-3.6484 7.4297-11.809v-55.477c0-7.2734-5.8906-13.176-13.176-13.176h-55.477c-7.2734 0-13.176 5.8906-13.176 13.176v55.477c0 7.4883 6.2656 13.176 13.176 13.176zm13.176-55.477h29.137v29.137h-29.137zm131.69 451.91h-66.059c-14.496 0-26.305 11.797-26.305 26.305v66.059c0 14.496 11.797 26.305 26.305 26.305h66.059c14.496 0 26.305-11.797 26.305-26.305v-66.059c0-14.496-11.797-26.305-26.305-26.305zm-66.012 92.363-0.035156-66.012 66.012-0.035157 0.058593 66.012zm66.012 53.09h-66.059c-14.496 0-26.305 11.797-26.305 26.305v66.059c0 14.496 11.797 26.305 26.305 26.305h66.059c14.496 0 26.305-11.797 26.305-26.305v-66.059c0-14.496-11.797-26.305-26.305-26.305zm-66.012 92.363-0.035156-66.012 66.012-0.035156 0.058593 66.012zm65.566 239.5h-65.148c-26.629 0-26.629-40.246 0-40.246h65.148c26.316 0 26.797 40.246 0 40.246zm0.45703-186.41h-66.059c-14.496 0-26.305 11.797-26.305 26.305v66.059c0 14.496 11.797 26.305 26.305 26.305h66.059c14.496 0 26.305-11.797 26.305-26.305v-66.059c0-14.496-11.797-26.305-26.305-26.305zm-66.012 92.363-0.035156-66.012 66.012-0.035157 0.058594 66.012zm214.67-92.363h-66.059c-14.496 0-26.305 11.797-26.305 26.305v66.059c0 14.496 11.797 26.305 26.305 26.305h66.059c14.496 0 26.305-11.797 26.305-26.305v-66.059c0-14.496-11.797-26.305-26.305-26.305zm-66.012 92.363-0.035156-66.012 66.012-0.035157 0.058594 66.012z" fill="#05b347"></path></svg>