<svg xmlns="http://www.w3.org/2000/svg" width="1200pt" height="1200pt" viewBox="0 0 1200 1200"><path d="m548.84 656.64c0.70703-10.094 4.8047-19.652 11.629-27.125 6.8203-7.4688 15.969-12.418 25.957-14.035v82.359c-9.9922-1.6172-19.141-6.5625-25.965-14.039-6.8242-7.4727-10.918-17.035-11.621-27.133zm631.8-277.69v-2.4922 0.003906c-0.38672-4.3203-2.8125-8.1992-6.5273-10.438l-537.78-323.73c-10.926-6.6953-23.488-10.238-36.305-10.238-12.812 0-25.375 3.543-36.301 10.238l-537.78 323.73c-5.25 3.1562-7.7422 9.4297-6.0938 15.332 1.6523 5.8984 7.0391 9.9688 13.164 9.9453h130.97v92.453-0.003906c0.007813 7.5078 6.0898 13.594 13.598 13.602h40.375v431.24h-115.23c-7.5078 0.007812-13.59 6.0898-13.598 13.602v92.453l-56.117-0.003907c-7.5117 0.007813-13.602 6.1016-13.602 13.613v106.08c0.007812 7.5117 6.0898 13.598 13.602 13.613h1134c7.5156-0.007813 13.605-6.0977 13.613-13.613v-106.08c0-7.5117-6.0859-13.605-13.598-13.613h-56.078v-92.449c-0.007812-7.5117-6.0938-13.594-13.602-13.602h-115.23v-431.24h40.375c7.5117 0 13.605-6.0859 13.613-13.602v-92.449h130.9c6.1211-0.03125 11.484-4.0938 13.176-9.9766 0.21875-0.77344 0.35938-1.5703 0.42578-2.375zm-529.43 390.36c-0.70703 10.098-4.8008 19.66-11.625 27.137-6.8242 7.4766-15.973 12.43-25.965 14.051v-82.375c9.9922 1.6211 19.145 6.5703 25.969 14.047 6.8203 7.4766 10.918 17.043 11.621 27.141zm-102.38 0c0-7.5117-6.0898-13.602-13.602-13.602s-13.598 6.0898-13.598 13.602c0.85156 17.305 7.8398 33.742 19.711 46.363 11.871 12.617 27.852 20.594 45.074 22.5v19.703c0 7.5117 6.0898 13.602 13.602 13.602 7.5078 0 13.598-6.0898 13.598-13.602v-19.703c23.609-1.4453 44.828-14.879 56.234-35.598s11.406-45.836 0-66.555c-11.406-20.723-32.625-34.156-56.234-35.602v-84.941c9.9922 1.6172 19.145 6.5664 25.969 14.043 6.8242 7.4805 10.918 17.043 11.621 27.145 0 7.5117 6.0859 13.598 13.598 13.598s13.602-6.0859 13.602-13.598c-0.85156-17.309-7.8359-33.75-19.711-46.371-11.871-12.621-27.855-20.602-45.078-22.508v-19.727c0-7.5117-6.0898-13.602-13.598-13.602-7.5117 0-13.602 6.0898-13.602 13.602v19.703c-17.223 1.9062-33.203 9.8867-45.074 22.508-11.871 12.621-18.863 29.062-19.711 46.367 0.85156 17.305 7.8398 33.738 19.711 46.355 11.875 12.621 27.855 20.594 45.074 22.496v85.008c-9.9883-1.625-19.137-6.5781-25.961-14.055-6.8242-7.4727-10.918-17.035-11.625-27.133zm51.188-228.39c-45.621 0.015624-89.363 18.152-121.61 50.418-32.246 32.27-50.359 76.023-50.348 121.64 0.007813 45.621 18.137 89.367 50.398 121.62 32.258 32.254 76.012 50.371 121.63 50.371 45.621 0 89.371-18.121 121.63-50.379 32.262-32.254 50.387-76.004 50.395-121.62-0.058594-45.621-18.215-89.359-50.48-121.61-32.27-32.254-76.012-50.387-121.64-50.426zm0 371.27c52.84-0.011718 103.51-21.012 140.87-58.383 37.355-37.367 58.34-88.047 58.332-140.89-0.007812-52.84-21.008-103.51-58.375-140.87-37.367-37.359-88.047-58.344-140.89-58.34-52.84 0.007812-103.51 21.004-140.87 58.367-37.363 37.367-58.348 88.047-58.344 140.89 0.050781 52.832 21.059 103.48 58.41 140.85 37.355 37.363 88.008 58.379 140.84 58.441zm0-613.27c-16.336 0-32-6.4922-43.547-18.043-11.551-11.551-18.035-27.219-18.027-43.555 0.003906-16.332 6.5-31.996 18.055-43.539 11.559-11.543 27.227-18.023 43.562-18.012 16.332 0.011719 31.992 6.5117 43.531 18.07 11.543 11.562 18.016 27.234 18 43.566-0.035156 16.32-6.5391 31.961-18.086 43.492-11.547 11.535-27.195 18.02-43.516 18.031zm0-150.36v-0.003906c23.547-0.003906 46.133 9.3477 62.785 26 16.652 16.648 26.012 39.23 26.012 62.781 0.003906 23.547-9.3477 46.133-26 62.785-16.648 16.652-39.234 26.008-62.781 26.008-23.547 0.003906-46.133-9.3516-62.785-26.004-16.652-16.648-26.008-39.234-26.008-62.781 0.027344-23.539 9.3906-46.102 26.031-62.746 16.645-16.645 39.207-26.012 62.746-26.043zm553.41 992.15h-1106.8v-78.789h1106.8v78.852zm-1037.1-184.92h967.39v78.84h-967.39zm128.82-458.45h78.93v431.24h-78.93zm-53.961-106.05h817.68v78.84l-817.69-0.003906v-78.84zm386.55-325.68c6.6836-4.168 14.398-6.375 22.273-6.375 7.8711 0 15.59 2.207 22.27 6.375l495.8 298.45h-1036.1zm271.03 431.73h-497.51v431.24h497.51zm106.12 431.24h-78.914v-431.24h78.918z" fill="#05b347" fill-rule="evenodd"></path></svg>