<svg xmlns="http://www.w3.org/2000/svg" width="1200pt" height="1200pt" viewBox="0 0 1200 1200"><g fill="#05b347"><path d="m44.633 467.05h250.68v-199.9c0-24.586 20.047-44.633 44.633-44.633h815.41c24.586 0 44.633 20.047 44.633 44.633v421.02c0 24.586-20.195 44.633-44.633 44.633h-250.68v199.9c0 24.586-20.047 44.781-44.633 44.781h-815.41c-24.438 0-44.633-20.195-44.633-44.781v-420.88c0-24.586 20.047-44.781 44.633-44.781zm271.76 0h543.66c24.586 0 44.633 20.195 44.633 44.781v199.9h250.68c12.879 0 23.562-10.684 23.562-23.562v-304.24h-862.54v83.121zm862.54-104.2v-36.586h-862.54v36.586zm0-57.66v-38.047c0-12.879-10.684-23.562-23.562-23.562h-815.41c-13.023 0-23.562 10.684-23.562 23.562v38.047zm-1157.9 244.54h862.54v-37.902c0-13.023-10.684-23.562-23.562-23.562h-815.41c-12.879 0-23.562 10.535-23.562 23.562v37.902zm862.54 78.879h-862.54v304.1c0 13.023 10.684 23.562 23.562 23.562h815.41c12.879 0 23.562-10.535 23.562-23.562v-304.1zm0-57.805h-862.54v36.73h862.54z"></path><path d="m813.8 856.61c0 39.805-44.34 64.684-78.293 42.879-2.7812 1.7578-5.707 3.2188-8.6328 4.3906-33.074 13.316-69.805-10.977-69.805-47.27 0-36.145 36.73-60.293 69.805-47.121 2.9258 1.1719 5.8555 2.6328 8.6328 4.3906 33.953-21.953 78.293 3.0742 78.293 42.73zm-94.242 26.488c-9.9531-16.098-9.9531-36.73 0-52.977l-0.87891-0.29297c-18.879-7.4648-39.66 6.293-39.66 26.781 0 20.633 20.926 34.391 39.66 26.926zm22.977-46.828c-11.121 11.121-11.121 29.707 0 40.828 18.145 18.145 49.316 5.1211 49.316-20.488 0-25.465-31.172-38.488-49.316-20.34z"></path><path d="m104.2 745.39h161.12v63.219h-172.1v-63.219zm139.17 21.953h-128.05v19.316h128.05z"></path><path d="m90.145 895.83h276.88v21.074h-276.88z"></path><path d="m1115.6 644.56c0 39.805-44.488 64.684-78.438 42.73-2.6328 1.7578-5.5625 3.2188-8.6328 4.5352-32.926 13.172-69.805-10.977-69.805-47.27 0-36.293 36.879-60.438 69.805-47.27 3.0742 1.3164 6 2.7812 8.6328 4.5352 33.953-21.953 78.438 3.0742 78.438 42.73zm-94.391 26.488c-9.9531-16.098-9.8047-36.879 0-52.977l-0.73047-0.29297c-19.023-7.4648-39.66 6.293-39.66 26.781 0 20.633 20.781 34.391 39.512 26.926zm22.977-46.977c-11.121 11.27-11.121 29.707 0 40.977 18.293 18.145 49.316 4.9766 49.316-20.488s-31.023-38.633-49.316-20.488z"></path></g></svg>