<svg xmlns="http://www.w3.org/2000/svg" width="1200pt" height="1200pt" viewBox="0 0 1200 1200"><g fill="#05b347"><path d="m356.55 543.45c6.7266-6.7266 6.7266-17.637 0-24.363l-18.91-18.91 79.273-79.273 64 64-16.91 16.91c-6.7266 6.7266-6.7266 17.637 0 24.363l76.363 76.363c3.4531 3.4531 7.8164 5.0898 12.184 5.0898 4.3633 0 8.9102-1.6367 12.184-5.0898 6.7266-6.7266 6.7266-17.637 0-24.363l-64.184-64.184 109.27-109.27 122.91 122.91c6.7266 6.7266 17.637 6.7266 24.363 0 6.7266-6.7266 6.7266-17.637 0-24.363l-135.09-135.09c-6.7266-6.7266-17.637-6.7266-24.363 0l-16.91 16.91-64-64 218.91-218.73c4.9102-4.9102 6.3633-12.363 3.8164-18.91-2.7266-6.3633-9.0898-10.727-16.18-10.727h-244c-4.5469 0-8.9102 1.8164-12.184 5.0898l-275.82 276-18.91-18.91c-6.7266-6.7266-17.637-6.7266-24.363 0l-117.45 117.45c-6.7266 6.7266-6.7266 17.637 0 24.363l184 184.37c3.2734 3.2734 7.6367 5.0898 12.184 5.0898s8.9102-1.8164 12.184-5.0898zm199.82-134-51.09 51.09-64-64 51.09-51.09zm-69.816-302.18h195.09l-368.36 368.54-97.637-97.637zm-419.46 357.27 93.09-93.09 159.82 159.82-93.09 93.09z"></path><path d="m857.45 603.45c-6.7266-6.7266-17.637-6.7266-24.363 0-6.7266 6.7266-6.7266 17.637 0 24.363l275.09 275.09c14.547 14.547 22.727 34 22.727 54.727 0 20.727-8 40-22.727 54.727-30.184 30.184-79.273 30.184-109.27 0l-217.82-217.63c-6.7266-6.7266-17.637-6.7266-24.363 0-6.7266 6.7266-6.7266 17.637 0 24.363l217.64 217.64c21.816 21.816 50.363 32.727 79.09 32.727s57.273-10.91 79.09-32.727c43.637-43.637 43.637-114.55 0-158.18z"></path><path d="m1051.6 973.27c4.7266 0 9.0898-1.8164 12.184-5.0898 3.2734-3.2734 5.0898-7.8164 5.0898-12.184 0-2.1836-0.36328-4.5469-1.2734-6.5469-0.91016-2.1836-2.1836-4.1836-3.8164-5.6367-0.91016-0.72656-1.6367-1.6367-2.5469-2-1.0898-0.72656-1.8164-1.2734-2.9102-1.6367-1.0898-0.54688-2.1836-0.91016-3.2734-1.0898-5.6367-1.2734-11.637 0.72656-15.453 4.7266-1.8164 1.6367-2.9102 3.4531-3.8164 5.6367-0.91016 2-1.4531 4.3633-1.4531 6.5469 0 4.5469 1.8164 8.9102 5.2734 12.184 1.6367 1.6367 3.4531 2.7266 5.4531 3.6367 1.9961 0.90625 4.3594 1.4531 6.543 1.4531z"></path><path d="m1169.6 260.36-73.637-73.637c-6.1836-6.1836-16-6.7266-22.727-1.4531l-125.82 97.637c-4 3.0898-6.3633 7.6367-6.7266 12.547-0.36328 4.9102 1.4531 9.8164 5.0898 13.273l38.727 38.727-256 255.82-28.184-28.184c-6.7266-6.7266-17.637-6.7266-24.363 0l-57.273 57.273-19.09-19.09c-6.7266-6.7266-17.637-6.7266-24.363 0l-311.64 311.45c-46.363 46.363-46.363 121.64 0 167.82 23.09 23.09 53.453 34.727 84 34.727s60.727-11.637 84-34.727l311.27-311.27c6.7266-6.7266 6.7266-17.637 0-24.363l-19.09-19.09 57.273-57.273c6.7266-6.7266 6.7266-17.637 0-24.363l-28.184-28.184 255.82-255.82 38.727 38.727c3.2734 3.2734 7.6367 5.0898 12.184 5.0898h1.0898c4.9102-0.36328 9.4531-2.7266 12.547-6.7266l97.637-125.82c5.4531-7.2695 4.9062-17.09-1.2734-23.09zm-762.55 807.64c-15.816 15.816-37.09 24.727-59.453 24.727-22.547 0-43.637-8.7266-59.453-24.727-15.816-15.816-24.727-37.09-24.727-59.453s8.7266-43.637 24.727-59.453l299.09-299.09 119.09 119.09zm292.36-354.73-56.547-56.547 45.09-45.09 56.547 56.547zm358.55-341.09-74.184-74.184 98.363-76.363 52.184 52.184z"></path><path d="m365.45 1000.2c-0.54688-1.0898-1.0898-2-1.6367-3.0898-0.72656-0.91016-1.4531-1.8164-2.1836-2.5469-4-4-9.8164-5.6367-15.453-4.7266-1.0898 0.18359-2.1836 0.54688-3.2734 1.0898-1.0898 0.36328-2 0.91016-2.9102 1.6367-0.91016 0.54688-1.8164 1.4531-2.5469 2-0.91016 0.91016-1.6367 1.6367-2.1836 2.5469-0.54688 1.0898-1.0898 2-1.6367 3.0898-0.36328 1.0898-0.72656 2-1.0898 3.0898-0.18359 1.2734-0.36328 2.1836-0.36328 3.4531 0 4.5469 1.8164 8.9102 5.0898 12.184 0.72656 0.72656 1.8164 1.4531 2.5469 2 0.91016 0.72656 1.8164 1.2734 2.9102 1.6367 1.0898 0.54688 2.1836 0.91016 3.2734 1.0898 1.0898 0.18359 2.1836 0.36328 3.4531 0.36328 4.5469 0 8.7266-1.8164 12.184-5.0898 3.2734-3.2734 5.0898-7.8164 5.0898-12.184 0-1.2734-0.18359-2.1836-0.36328-3.4531-0.17578-1.0898-0.54297-2.1836-0.90625-3.0898z"></path></g></svg>