<svg xmlns="http://www.w3.org/2000/svg" width="1200pt" height="1200pt" viewBox="0 0 1200 1200"><g fill="#05b347"><path d="m847.39 132.72h-27.07l-48.566-80.945c-3.2344-5.3945-9.0703-8.6914-15.355-8.6914l-312.73-0.003906c-6.2891 0-12.121 3.2969-15.355 8.6914l-48.566 80.945-27.133 0.003906c-9.8906 0-17.91 8.0195-17.91 17.91v248.51h-232.14c-9.8906 0-17.91 8.0195-17.91 17.91v704.05h-39.879v35.82h1110.4v-35.82h-39.879l-0.003906-704.05c0-9.8906-8.0195-17.91-17.91-17.91h-232.14v-248.51c0-9.8906-8.0195-17.91-17.91-17.91zm-393.57-53.816h292.43l32.242 53.73h-356.92zm-333.34 356.05h214.23v686.14h-214.23zm250.05-266.42h458.96v952.56h-57.508l-0.003906-251.81c0-9.8906-8.0195-17.91-17.91-17.91h-308.12c-9.8906 0-17.91 8.0195-17.91 17.91v251.81h-57.508v-952.56zm93.328 718.66h118.24v233.9h-118.24zm154.06 233.9v-233.9h118.24v233.9zm461.61-686.14v686.14h-214.23v-686.14z"></path><path d="m424.25 204.36h56.977v35.82h-56.977z"></path><path d="m519.99 204.36h56.977v35.82h-56.977z"></path><path d="m615.73 204.36h56.969v35.82h-56.969z"></path><path d="m711.47 204.36h56.969v35.82h-56.969z"></path><path d="m424.25 314.06h56.977v35.82h-56.977z"></path><path d="m519.99 314.06h56.977v35.82h-56.977z"></path><path d="m615.73 314.06h56.969v35.82h-56.969z"></path><path d="m711.47 314.06h56.969v35.82h-56.969z"></path><path d="m424.25 423.77h56.977v35.82h-56.977z"></path><path d="m519.99 423.77h56.977v35.82h-56.977z"></path><path d="m615.73 423.77h56.969v35.82h-56.969z"></path><path d="m711.47 423.77h56.969v35.82h-56.969z"></path><path d="m424.25 533.46h56.977v35.82h-56.977z"></path><path d="m519.99 533.46h56.977v35.82h-56.977z"></path><path d="m615.73 533.46h56.969v35.82h-56.969z"></path><path d="m711.47 533.46h56.969v35.82h-56.969z"></path><path d="m424.25 643.17h56.977v35.82h-56.977z"></path><path d="m519.99 643.17h56.977v35.82h-56.977z"></path><path d="m615.73 643.17h56.969v35.82h-56.969z"></path><path d="m711.47 643.17h56.969v35.82h-56.969z"></path><path d="m424.25 752.87h56.977v35.82h-56.977z"></path><path d="m519.99 752.87h56.977v35.82h-56.977z"></path><path d="m615.73 752.87h56.969v35.82h-56.969z"></path><path d="m711.47 752.87h56.969v35.82h-56.969z"></path><path d="m151.24 491.45h56.969v35.82h-56.969z"></path><path d="m246.98 491.45h56.969v35.82h-56.969z"></path><path d="m151.24 583.75h56.969v35.82h-56.969z"></path><path d="m246.98 583.75h56.969v35.82h-56.969z"></path><path d="m151.24 676.07h56.969v35.82h-56.969z"></path><path d="m246.98 676.07h56.969v35.82h-56.969z"></path><path d="m151.24 768.38h56.969v35.82h-56.969z"></path><path d="m246.98 768.38h56.969v35.82h-56.969z"></path><path d="m151.24 860.68h56.969v35.82h-56.969z"></path><path d="m246.98 860.68h56.969v35.82h-56.969z"></path><path d="m151.24 953h56.969v35.82h-56.969z"></path><path d="m246.98 953h56.969v35.82h-56.969z"></path><path d="m896.07 491.45h56.969v35.82h-56.969z"></path><path d="m991.8 491.45h56.969v35.82h-56.969z"></path><path d="m896.07 583.75h56.969v35.82h-56.969z"></path><path d="m991.8 583.75h56.969v35.82h-56.969z"></path><path d="m896.07 676.07h56.969v35.82h-56.969z"></path><path d="m991.8 676.07h56.969v35.82h-56.969z"></path><path d="m896.07 768.38h56.969v35.82h-56.969z"></path><path d="m991.8 768.38h56.969v35.82h-56.969z"></path><path d="m896.07 860.68h56.969v35.82h-56.969z"></path><path d="m991.8 860.68h56.969v35.82h-56.969z"></path><path d="m896.07 953h56.969v35.82h-56.969z"></path><path d="m991.8 953h56.969v35.82h-56.969z"></path></g></svg>