<svg xmlns="http://www.w3.org/2000/svg" width="1200pt" height="1200pt" viewBox="0 0 1200 1200"><g fill="#05b347"><path d="m1181.5 280.36c-0.18359-1.6367-0.36328-3.2734-0.91016-4.9102-0.18359-0.54688-0.36328-1.0898-0.54688-1.6367-0.91016-1.8164-2-3.6367-3.4531-5.0898 0 0 0-0.18359-0.18359-0.18359l-216.18-216.18s-0.18359 0-0.18359-0.18359c-1.4531-1.4531-3.2734-2.5469-5.0898-3.4531-0.54688-0.18359-1.0898-0.36328-1.6367-0.54687-1.6367-0.54688-3.2734-0.91016-4.9102-0.91016-0.36328 0-0.72656-0.18359-1.0898-0.18359l-534.18 0.003906c-29.273 0-53.09 23.816-53.09 53.09v463.46c-15.09-3.0898-30.91-0.36328-44.184 8.7266l-271.82 182.36c-26.727 18-33.816 54.363-16 81.09 7.4531 11.273 18.363 18.727 30.363 22.727v272c0 10 8.1836 18.184 18.184 18.184l1052 4.1836c29.273 0 53.09-23.816 53.09-53.09v-818.37c0.17969-0.36328 0-0.72656-0.18359-1.0898zm-61.816-17.09h-137.45c-9.2734 0-16.727-7.4531-16.727-16.727l-0.003906-137.46zm-1055.3 521.64 271.82-182.36c7.4531-5.0898 17.09-5.0898 24.547 0l3.2734 2.1836c2.3633 3.0898 5.6367 5.4531 9.6367 6.3633l91.273 61.09 167.82 112.55c4.9102 3.2734 8.1836 8.3633 9.4531 14 1.2734 5.6367 0 11.637-3.2734 16.547-6.5469 9.8164-20.91 12.727-30.727 6l-249.64-167.27c-3.0898-2-6.5469-3.0898-10.184-3.0898s-7.0898 1.0898-10.184 3.0898l-249.27 167.27c-10.184 6.7266-24 4-30.727-6-6.7227-9.8242-3.9922-23.641 6.1875-30.367zm30.547 73.637c4.9102-1.6367 9.8164-3.6367 14.363-6.7266l239.27-160.55 239.45 160.55c4.5469 3.0898 9.2734 5.2734 14.363 6.9102v253.64h-151.64v-193.82c0-10-8.1836-18.184-18.184-18.184h-167.82c-10 0-18.184 8.1836-18.184 18.184v193.82h-151.63zm188 78.18h131.45v175.64h-131.45zm862.54 163.09c0 9.2734-7.4531 16.727-16.727 16.727l-490 0.003906v-258.18c12.184-4 23.09-11.637 30.363-22.727 8.7266-12.91 11.816-28.547 8.7266-43.816-1.8164-9.2734-6-17.637-11.637-24.727h383.45c10 0 18.184-8.1836 18.184-18.184s-8.1836-18.184-18.184-18.184h-429.09c-0.91016 0-1.6367 0.36328-2.3633 0.54688l-221.82-148.55v-482.54c0-9.2734 7.4531-16.727 16.727-16.727l516-0.003906v163.09c0 29.273 23.816 53.09 53.09 53.09l163.27 0.003907z"></path><path d="m1049.6 1017.5h-193.09c-10 0-18.184 8.1836-18.184 18.184s8.1836 18.184 18.184 18.184h193.09c10 0 18.184-8.1836 18.184-18.184-0.003906-10-8.1836-18.184-18.184-18.184z"></path><path d="m1049.6 926.36h-193.09c-10 0-18.184 8.1836-18.184 18.184s8.1836 18.184 18.184 18.184h193.09c10 0 18.184-8.1836 18.184-18.184-0.003906-10-8.1836-18.184-18.184-18.184z"></path><path d="m1049.6 611.09h-522.36c-10 0-18.184 8.1836-18.184 18.184s8.1836 18.184 18.184 18.184h522.55c10 0 18.184-8.1836 18.184-18.184-0.003906-10-8.3672-18.184-18.367-18.184z"></path><path d="m509.09 509.45c0 10 8.1836 18.184 18.184 18.184h522.55c10 0 18.184-8.1836 18.184-18.184s-8.1836-18.184-18.184-18.184l-522.55 0.003907c-10.184 0-18.184 8.1797-18.184 18.18z"></path><path d="m509.09 389.64c0 10 8.1836 18.184 18.184 18.184h279.82c10 0 18.184-8.1836 18.184-18.184s-8.1836-18.184-18.184-18.184h-279.82c-10.184 0-18.184 8.1836-18.184 18.184z"></path><path d="m725.82 288.18c20.91 0 40.727-8.1836 55.637-23.273 14.727-14.91 22.91-34.727 22.91-55.453 0-43.453-35.273-78.727-78.547-78.727h-172.91c-21.09 0-40.91 8.1836-55.637 22.91-14.91 14.91-23.09 34.727-23.09 55.816 0 43.453 35.273 78.727 78.727 78.727zm-215.27-78.73c0-11.273 4.3633-22 12.547-30 8-8 18.547-12.363 29.816-12.363h172.91c23.273 0 42.184 18.91 42.184 42.363 0 11.273-4.3633 21.816-12.363 30-8 8-18.727 12.547-29.816 12.547h-172.91c-23.461-0.18359-42.367-19.273-42.367-42.547z"></path><path d="m313.64 1009.3c-10 0-18.184 8.1836-18.184 18.184v12.363c0 10 8.1836 18.184 18.184 18.184s18.184-8.1836 18.184-18.184v-12.363c-0.003906-10.004-8.1836-18.184-18.184-18.184z"></path></g></svg>