<svg xmlns="http://www.w3.org/2000/svg" width="1200pt" height="1200pt" viewBox="0 0 1200 1200"><g fill="#05b347"><path d="m787.5 1106.2h-187.5v-37.5h179.74l45.262-45.262v-171.98l-45.262-45.262h-67.238c-4.9727 0-9.7422-1.9766-13.258-5.4922-3.5156-3.5156-5.4922-8.2852-5.4922-13.258v-128.89c-16.09 4.1797-30.34 13.578-40.516 26.723-10.18 13.141-15.715 29.289-15.734 45.914v93.75h-37.5v-93.75c0.03125-29.828 11.891-58.426 32.984-79.516 21.09-21.094 49.688-32.953 79.516-32.984 4.9727 0 9.7422 1.9766 13.258 5.4922 3.5156 3.5156 5.4922 8.2852 5.4922 13.258v131.25h56.25c4.9727 0 9.7422 1.9766 13.258 5.4922l56.25 56.25c3.5156 3.5156 5.4922 8.2852 5.4922 13.258v187.5c0 4.9727-1.9766 9.7422-5.4922 13.258l-56.25 56.25c-3.5156 3.5156-8.2852 5.4922-13.258 5.4922z"></path><path d="m581.25 881.25h-75c-20.098 0-38.664-10.723-48.715-28.125-10.047-17.402-10.047-38.848 0-56.25 10.051-17.402 28.617-28.125 48.715-28.125h75c20.098 0 38.664 10.723 48.715 28.125 10.047 17.402 10.047 38.848 0 56.25-10.051 17.402-28.617 28.125-48.715 28.125zm-75-75c-6.6992 0-12.887 3.5742-16.238 9.375-3.3477 5.8008-3.3477 12.949 0 18.75 3.3516 5.8008 9.5391 9.375 16.238 9.375h75c6.6992 0 12.887-3.5742 16.238-9.375 3.3477-5.8008 3.3477-12.949 0-18.75-3.3516-5.8008-9.5391-9.375-16.238-9.375z"></path><path d="m543.75 956.25h-75c-20.098 0-38.664-10.723-48.715-28.125-10.047-17.402-10.047-38.848 0-56.25 10.051-17.402 28.617-28.125 48.715-28.125h75c20.098 0 38.664 10.723 48.715 28.125 10.047 17.402 10.047 38.848 0 56.25-10.051 17.402-28.617 28.125-48.715 28.125zm-75-75c-6.6992 0-12.887 3.5742-16.238 9.375-3.3477 5.8008-3.3477 12.949 0 18.75 3.3516 5.8008 9.5391 9.375 16.238 9.375h75c6.6992 0 12.887-3.5742 16.238-9.375 3.3477-5.8008 3.3477-12.949 0-18.75-3.3516-5.8008-9.5391-9.375-16.238-9.375z"></path><path d="m581.25 1031.2h-75c-20.098 0-38.664-10.723-48.715-28.125-10.047-17.402-10.047-38.848 0-56.25 10.051-17.402 28.617-28.125 48.715-28.125h75c20.098 0 38.664 10.723 48.715 28.125 10.047 17.402 10.047 38.848 0 56.25-10.051 17.402-28.617 28.125-48.715 28.125zm-75-75c-6.6992 0-12.887 3.5742-16.238 9.375-3.3477 5.8008-3.3477 12.949 0 18.75 3.3516 5.8008 9.5391 9.375 16.238 9.375h75c6.6992 0 12.887-3.5742 16.238-9.375 3.3477-5.8008 3.3477-12.949 0-18.75-3.3516-5.8008-9.5391-9.375-16.238-9.375z"></path><path d="m600 1106.2h-75c-20.098 0-38.664-10.723-48.715-28.125-10.047-17.402-10.047-38.848 0-56.25 10.051-17.402 28.617-28.125 48.715-28.125h75c20.098 0 38.664 10.723 48.715 28.125 10.047 17.402 10.047 38.848 0 56.25-10.051 17.402-28.617 28.125-48.715 28.125zm-75-75c-6.6992 0-12.887 3.5742-16.238 9.375-3.3477 5.8008-3.3477 12.949 0 18.75 3.3516 5.8008 9.5391 9.375 16.238 9.375h75c6.6992 0 12.887-3.5742 16.238-9.375 3.3477-5.8008 3.3477-12.949 0-18.75-3.3516-5.8008-9.5391-9.375-16.238-9.375z"></path><path d="m993.75 1106.2h-150c-4.9727 0-9.7422-1.9766-13.258-5.4922-3.5156-3.5156-5.4922-8.2852-5.4922-13.258v-300c0-4.9727 1.9766-9.7422 5.4922-13.258 3.5156-3.5156 8.2852-5.4922 13.258-5.4922h150c4.9727 0 9.7422 1.9766 13.258 5.4922 3.5156 3.5156 5.4922 8.2852 5.4922 13.258v300c0 4.9727-1.9766 9.7422-5.4922 13.258-3.5156 3.5156-8.2852 5.4922-13.258 5.4922zm-131.25-37.5h112.5v-262.5h-112.5z"></path><path d="m731.25 956.25c-103.82 0-131.25-85.855-131.25-131.25h37.5c0 9.582 3.3008 93.75 93.75 93.75z"></path><path d="m993.75 806.25h187.5v37.5h-187.5z"></path><path d="m993.75 1031.2h112.5v37.5h-112.5z"></path><path d="m1143.8 1031.2h37.5v37.5h-37.5z"></path><path d="m600 581.25h-187.5c-4.9727 0-9.7422-1.9766-13.258-5.4922l-56.25-56.25c-3.5156-3.5156-5.4922-8.2852-5.4922-13.258v-187.5c0-4.9727 1.9766-9.7422 5.4922-13.258l56.25-56.25c3.5156-3.5156 8.2852-5.4922 13.258-5.4922h56.25v-131.25c0-4.9727 1.9766-9.7422 5.4922-13.258 3.5156-3.5156 8.2852-5.4922 13.258-5.4922 29.828 0.03125 58.426 11.891 79.516 32.984 21.094 21.09 32.953 49.688 32.984 79.516v93.75h-37.5v-93.75c-0.019531-16.625-5.5547-32.773-15.734-45.914-10.176-13.145-24.426-22.543-40.516-26.723v128.89c0 4.9727-1.9766 9.7422-5.4922 13.258-3.5156 3.5156-8.2852 5.4922-13.258 5.4922h-67.238l-45.262 45.262v171.98l45.262 45.262h179.74z"></path><path d="m693.75 356.25h-75c-20.098 0-38.664-10.723-48.715-28.125-10.047-17.402-10.047-38.848 0-56.25 10.051-17.402 28.617-28.125 48.715-28.125h75c20.098 0 38.664 10.723 48.715 28.125 10.047 17.402 10.047 38.848 0 56.25-10.051 17.402-28.617 28.125-48.715 28.125zm-75-75c-6.6992 0-12.887 3.5742-16.238 9.375-3.3477 5.8008-3.3477 12.949 0 18.75 3.3516 5.8008 9.5391 9.375 16.238 9.375h75c6.6992 0 12.887-3.5742 16.238-9.375 3.3477-5.8008 3.3477-12.949 0-18.75-3.3516-5.8008-9.5391-9.375-16.238-9.375z"></path><path d="m731.25 431.25h-75c-20.098 0-38.664-10.723-48.715-28.125-10.047-17.402-10.047-38.848 0-56.25 10.051-17.402 28.617-28.125 48.715-28.125h75c20.098 0 38.664 10.723 48.715 28.125 10.047 17.402 10.047 38.848 0 56.25-10.051 17.402-28.617 28.125-48.715 28.125zm-75-75c-6.6992 0-12.887 3.5742-16.238 9.375-3.3477 5.8008-3.3477 12.949 0 18.75 3.3516 5.8008 9.5391 9.375 16.238 9.375h75c6.6992 0 12.887-3.5742 16.238-9.375 3.3477-5.8008 3.3477-12.949 0-18.75-3.3516-5.8008-9.5391-9.375-16.238-9.375z"></path><path d="m693.75 506.25h-75c-20.098 0-38.664-10.723-48.715-28.125-10.047-17.402-10.047-38.848 0-56.25 10.051-17.402 28.617-28.125 48.715-28.125h75c20.098 0 38.664 10.723 48.715 28.125 10.047 17.402 10.047 38.848 0 56.25-10.051 17.402-28.617 28.125-48.715 28.125zm-75-75c-6.6992 0-12.887 3.5742-16.238 9.375-3.3477 5.8008-3.3477 12.949 0 18.75 3.3516 5.8008 9.5391 9.375 16.238 9.375h75c6.6992 0 12.887-3.5742 16.238-9.375 3.3477-5.8008 3.3477-12.949 0-18.75-3.3516-5.8008-9.5391-9.375-16.238-9.375z"></path><path d="m675 581.25h-75c-20.098 0-38.664-10.723-48.715-28.125-10.047-17.402-10.047-38.848 0-56.25 10.051-17.402 28.617-28.125 48.715-28.125h75c20.098 0 38.664 10.723 48.715 28.125 10.047 17.402 10.047 38.848 0 56.25-10.051 17.402-28.617 28.125-48.715 28.125zm-75-75c-6.6992 0-12.887 3.5742-16.238 9.375-3.3477 5.8008-3.3477 12.949 0 18.75 3.3516 5.8008 9.5391 9.375 16.238 9.375h75c6.6992 0 12.887-3.5742 16.238-9.375 3.3477-5.8008 3.3477-12.949 0-18.75-3.3516-5.8008-9.5391-9.375-16.238-9.375z"></path><path d="m356.25 581.25h-150c-4.9727 0-9.7422-1.9766-13.258-5.4922-3.5156-3.5156-5.4922-8.2852-5.4922-13.258v-300c0-4.9727 1.9766-9.7422 5.4922-13.258 3.5156-3.5156 8.2852-5.4922 13.258-5.4922h150c4.9727 0 9.7422 1.9766 13.258 5.4922 3.5156 3.5156 5.4922 8.2852 5.4922 13.258v300c0 4.9727-1.9766 9.7422-5.4922 13.258-3.5156 3.5156-8.2852 5.4922-13.258 5.4922zm-131.25-37.5h112.5v-262.5h-112.5z"></path><path d="m468.75 431.25v-37.5c92.68 0 93.75-90 93.75-93.75h37.5c0 45.395-27.43 131.25-131.25 131.25z"></path><path d="m18.75 281.25h187.5v37.5h-187.5z"></path><path d="m93.75 506.25h112.5v37.5h-112.5z"></path><path d="m18.75 506.25h37.5v37.5h-37.5z"></path><path d="m356.25 1200c-4.9727 0-9.7422-1.9766-13.258-5.4922l-225-225c-3.5117-3.5195-5.4883-8.2852-5.4883-13.258s1.9766-9.7422 5.4922-13.258c3.5156-3.5156 8.2812-5.4922 13.254-5.4922h225c4.9727 0 9.7422 1.9766 13.258 5.4922 3.5156 3.5156 5.4922 8.2852 5.4922 13.258v225c0 4.9727-1.9766 9.7422-5.4922 13.258-3.5156 3.5156-8.2852 5.4922-13.258 5.4922zm-179.74-225 160.99 160.99v-160.99z"></path><path d="m1087.5 768.75h-37.5v-731.25h-900v206.25h-37.5v-225c0-4.9727 1.9766-9.7422 5.4922-13.258 3.5156-3.5156 8.2852-5.4922 13.258-5.4922h937.5c4.9727 0 9.7422 1.9766 13.258 5.4922 3.5156 3.5156 5.4922 8.2852 5.4922 13.258z"></path><path d="m1068.8 1200h-712.5c-4.9727 0-9.7422-1.9766-13.258-5.4922l-225-225c-3.5156-3.5156-5.4922-8.2852-5.4922-13.258v-375h37.5v367.24l214.01 214.01h685.99v-56.25h37.5v75c0 4.9727-1.9766 9.7422-5.4922 13.258-3.5156 3.5156-8.2852 5.4922-13.258 5.4922z"></path><path d="m750 75h262.5v37.5h-262.5z"></path><path d="m787.5 150h225v37.5h-225z"></path></g></svg>