<svg xmlns="http://www.w3.org/2000/svg" width="1200pt" height="1200pt" viewBox="0 0 1200 1200"><g fill="#05b347"><path d="m543.75 562.5h-56.25c-4.9727 0-9.7422-1.9766-13.258-5.4922l-56.25-56.25c-3.5156-3.5156-5.4922-8.2852-5.4922-13.258v-187.5c-0.003906-3.9102 1.2227-7.7188 3.5078-10.895l93.75-131.25c3.5156-4.9258 9.1914-7.8516 15.242-7.8555h150c4.9727 0 9.7422 1.9766 13.258 5.4922l75 75c3.5156 3.5156 5.4922 8.2852 5.4922 13.258v150c0 5.7695-2.6602 11.219-7.207 14.773-4.5508 3.5508-10.48 4.8125-16.082 3.4141-3.6562-0.89844-89.211-23.102-89.211-93.188v-56.25h37.5v56.25c1.2539 10.629 5.418 20.707 12.035 29.121 6.6172 8.4141 15.43 14.836 25.465 18.559v-114.92l-64.012-64.012h-132.58l-84.656 118.5v173.74l45.262 45.262h48.488z"></path><path d="m768.75 337.5v-37.5c6.6992 0 12.887-3.5742 16.238-9.375 3.3477-5.8008 3.3477-12.949 0-18.75-3.3516-5.8008-9.5391-9.375-16.238-9.375h-18.75v-37.5h18.75c20.098 0 38.664 10.723 48.715 28.125 10.047 17.402 10.047 38.848 0 56.25-10.051 17.402-28.617 28.125-48.715 28.125z"></path><path d="m806.25 412.5h-75v-37.5h75c6.6992 0 12.887-3.5742 16.238-9.375 3.3477-5.8008 3.3477-12.949 0-18.75-3.3516-5.8008-9.5391-9.375-16.238-9.375h-56.25v-37.5h56.25c20.098 0 38.664 10.723 48.715 28.125 10.047 17.402 10.047 38.848 0 56.25-10.051 17.402-28.617 28.125-48.715 28.125z"></path><path d="m768.75 487.5h-75c-20.098 0-38.664-10.723-48.715-28.125-10.047-17.402-10.047-38.848 0-56.25 10.051-17.402 28.617-28.125 48.715-28.125h75c20.098 0 38.664 10.723 48.715 28.125 10.047 17.402 10.047 38.848 0 56.25-10.051 17.402-28.617 28.125-48.715 28.125zm-75-75c-6.6992 0-12.887 3.5742-16.238 9.375-3.3477 5.8008-3.3477 12.949 0 18.75 3.3516 5.8008 9.5391 9.375 16.238 9.375h75c6.6992 0 12.887-3.5742 16.238-9.375 3.3477-5.8008 3.3477-12.949 0-18.75-3.3516-5.8008-9.5391-9.375-16.238-9.375z"></path><path d="m750 562.5h-75c-20.098 0-38.664-10.723-48.715-28.125-10.047-17.402-10.047-38.848 0-56.25 10.051-17.402 28.617-28.125 48.715-28.125h75c20.098 0 38.664 10.723 48.715 28.125 10.047 17.402 10.047 38.848 0 56.25-10.051 17.402-28.617 28.125-48.715 28.125zm-75-75c-6.6992 0-12.887 3.5742-16.238 9.375-3.3477 5.8008-3.3477 12.949 0 18.75 3.3516 5.8008 9.5391 9.375 16.238 9.375h75c6.6992 0 12.887-3.5742 16.238-9.375 3.3477-5.8008 3.3477-12.949 0-18.75-3.3516-5.8008-9.5391-9.375-16.238-9.375z"></path><path d="m431.25 562.5h-150c-4.9727 0-9.7422-1.9766-13.258-5.4922-3.5156-3.5156-5.4922-8.2852-5.4922-13.258v-300c0-4.9727 1.9766-9.7422 5.4922-13.258 3.5156-3.5156 8.2852-5.4922 13.258-5.4922h150c4.9727 0 9.7422 1.9766 13.258 5.4922 3.5156 3.5156 5.4922 8.2852 5.4922 13.258v300c0 4.9727-1.9766 9.7422-5.4922 13.258-3.5156 3.5156-8.2852 5.4922-13.258 5.4922zm-131.25-37.5h112.5v-262.5h-112.5z"></path><path d="m18.75 262.5h262.5v37.5h-262.5z"></path><path d="m93.75 487.5h187.5v37.5h-187.5z"></path><path d="m18.75 487.5h37.5v37.5h-37.5z"></path><path d="m562.5 393.75h-56.25v-37.5h56.25c92.68 0 93.75-90 93.75-93.75h37.5c0 45.395-27.43 131.25-131.25 131.25z"></path><path d="m600 1200c-187.69 0-318.75-131.06-318.75-318.75 0-142.89 85.293-311.61 243.75-352.5v-153.75h37.5v168.75c0 4.3242-1.4922 8.5117-4.2266 11.859-2.7305 3.3516-6.5391 5.6523-10.773 6.5156-148.61 29.793-228.75 186.68-228.75 319.12 0 165.6 115.65 281.25 281.25 281.25s281.25-115.65 281.25-281.25c0-132.45-80.137-289.33-228.75-319.12-4.2344-0.86328-8.043-3.1641-10.773-6.5156-2.7344-3.3477-4.2266-7.5352-4.2266-11.859v-18.75h37.5v3.75c158.46 40.895 243.75 209.61 243.75 352.5 0 187.69-131.06 318.75-318.75 318.75z"></path><path d="m637.5 337.5h37.5v131.25h-37.5z"></path><path d="m543.75 412.5h112.5v37.5h-112.5z"></path><path d="m543.75 487.5h93.75v37.5h-93.75z"></path><path d="m725.76 238.26-26.512-26.512 87.691-87.695c-7.6484-47.605-90.133-86.551-186.94-86.551s-179.3 38.945-186.94 86.551l87.695 87.695-26.512 26.512-93.75-93.75h-0.003906c-3.5156-3.5156-5.4922-8.2852-5.4922-13.258 0-73.594 98.832-131.25 225-131.25s225 57.656 225 131.25c0 4.9727-1.9766 9.7422-5.4922 13.258z"></path><path d="m581.25 18.75h37.5v93.75h-37.5z"></path><path d="m659.13 121.88 56.305-93.695 32.137 19.312-56.305 93.695z"></path><path d="m452.42 47.367 32.137-19.273 56.195 93.695-32.137 19.273z"></path><path d="m600 1031.2c-44.754 0-87.676-17.777-119.32-49.426-31.648-31.648-49.426-74.57-49.426-119.32s17.777-87.676 49.426-119.32c31.648-31.648 74.57-49.426 119.32-49.426s87.676 17.777 119.32 49.426c31.648 31.648 49.426 74.57 49.426 119.32-0.050781 44.738-17.844 87.633-49.48 119.27s-74.531 49.43-119.27 49.48zm0-300c-34.809 0-68.195 13.828-92.809 38.441-24.613 24.613-38.441 58-38.441 92.809s13.828 68.195 38.441 92.809c24.613 24.613 58 38.441 92.809 38.441s68.195-13.828 92.809-38.441c24.613-24.613 38.441-58 38.441-92.809-0.042969-34.797-13.887-68.152-38.492-92.758-24.605-24.605-57.961-38.449-92.758-38.492z"></path><path d="m637.5 881.25h-75c-4.9727 0-9.7422-1.9766-13.258-5.4922l-18.75-18.75c-3.5156-3.5156-5.4922-8.2852-5.4922-13.258v-37.5c0-4.9727 1.9766-9.7422 5.4922-13.258l18.75-18.75c3.5156-3.5156 8.2852-5.4922 13.258-5.4922h75c4.9727 0 9.7422 1.9766 13.258 5.4922l18.75 18.75c3.5156 3.5156 5.4922 8.2852 5.4922 13.258v18.75h-37.5v-10.988l-7.7617-7.7617h-59.477l-7.7617 7.7617v21.977l7.7617 7.7617h67.238z"></path><path d="m637.5 956.25h-75c-4.9727 0-9.7422-1.9766-13.258-5.4922l-18.75-18.75c-3.5156-3.5156-5.4922-8.2852-5.4922-13.258v-18.75h37.5v10.988l7.7617 7.7617h59.477l7.7617-7.7617v-21.977l-7.7617-7.7617h-67.238v-37.5h75c4.9727 0 9.7422 1.9766 13.258 5.4922l18.75 18.75c3.5156 3.5156 5.4922 8.2852 5.4922 13.258v37.5c0 4.9727-1.9766 9.7422-5.4922 13.258l-18.75 18.75c-3.5156 3.5156-8.2852 5.4922-13.258 5.4922z"></path><path d="m581.25 750h37.5v37.5h-37.5z"></path><path d="m581.25 937.5h37.5v37.5h-37.5z"></path><path d="m1106.2 937.5h-37.5v-506.25c0-4.9727 1.9766-9.7422 5.4922-13.258 3.5156-3.5156 8.2852-5.4922 13.258-5.4922h10.988l-67.238-67.238-67.238 67.238h10.988c4.9727 0 9.7422 1.9766 13.258 5.4922 3.5156 3.5156 5.4922 8.2852 5.4922 13.258v243.75h-37.5v-225h-37.5c-4.9727 0-9.7383-1.9766-13.254-5.4922-3.5156-3.5156-5.4922-8.2852-5.4922-13.258s1.9766-9.7383 5.4883-13.258l112.5-112.5c3.5195-3.5117 8.2852-5.4883 13.258-5.4883s9.7383 1.9766 13.258 5.4883l112.5 112.5c3.5117 3.5195 5.4883 8.2852 5.4883 13.258s-1.9766 9.7422-5.4922 13.258c-3.5156 3.5156-8.2812 5.4922-13.254 5.4922h-37.5z"></path><path d="m956.25 712.5h37.5v37.5h-37.5z"></path><path d="m112.5 993.75h-37.5v-262.5h-37.5c-4.9727 0-9.7383-1.9766-13.254-5.4922-3.5156-3.5156-5.4922-8.2852-5.4922-13.258s1.9766-9.7383 5.4883-13.258l112.5-112.5c3.5195-3.5117 8.2852-5.4883 13.258-5.4883s9.7383 1.9766 13.258 5.4883l112.5 112.5c3.5117 3.5195 5.4883 8.2852 5.4883 13.258s-1.9766 9.7422-5.4922 13.258c-3.5156 3.5156-8.2812 5.4922-13.254 5.4922h-37.5v150h-37.5v-168.75c0-4.9727 1.9766-9.7422 5.4922-13.258 3.5156-3.5156 8.2852-5.4922 13.258-5.4922h10.988l-67.238-67.238-67.238 67.238h10.988c4.9727 0 9.7422 1.9766 13.258 5.4922 3.5156 3.5156 5.4922 8.2852 5.4922 13.258z"></path><path d="m187.5 918.75h37.5v37.5h-37.5z"></path></g></svg>