<svg xmlns="http://www.w3.org/2000/svg" width="1200pt" height="1200pt" viewBox="0 0 1200 1200"><g fill="#05b347"><path d="m356.25 1200c-4.9727 0-9.7422-1.9766-13.258-5.4922l-225-225c-3.5117-3.5195-5.4883-8.2852-5.4883-13.258s1.9766-9.7422 5.4922-13.258c3.5156-3.5156 8.2812-5.4922 13.254-5.4922h225c4.9727 0 9.7422 1.9766 13.258 5.4922 3.5156 3.5156 5.4922 8.2852 5.4922 13.258v225c0 4.9727-1.9766 9.7422-5.4922 13.258-3.5156 3.5156-8.2852 5.4922-13.258 5.4922zm-179.74-225 160.99 160.99v-160.99z"></path><path d="m1068.8 1200h-712.5c-4.9727 0-9.7422-1.9766-13.258-5.4922l-225-225c-3.5156-3.5156-5.4922-8.2852-5.4922-13.258v-300h37.5v292.24l214.01 214.01h685.99v-262.5h37.5v281.25c0 4.9727-1.9766 9.7422-5.4922 13.258-3.5156 3.5156-8.2852 5.4922-13.258 5.4922z"></path><path d="m1087.5 487.5h-37.5v-450h-900v93.75h-37.5v-112.5c0-4.9727 1.9766-9.7422 5.4922-13.258 3.5156-3.5156 8.2852-5.4922 13.258-5.4922h937.5c4.9727 0 9.7422 1.9766 13.258 5.4922 3.5156 3.5156 5.4922 8.2852 5.4922 13.258z"></path><path d="m412.5 881.25c-6.0273 0-11.688-2.8945-15.211-7.7812-3.5273-4.8906-4.4883-11.176-2.582-16.895l37.5-112.5 35.625 11.852-25.648 76.875 76.875-25.648 11.852 35.625-112.5 37.5-0.003906-0.003906c-1.9062 0.63672-3.8984 0.96484-5.9062 0.97656z"></path><path d="m1031.2 825h-243.75c-4.9727 0-9.7422-1.9766-13.258-5.4922l-50.754-50.758h-104.74c-20.098 0-38.664-10.723-48.715-28.125-10.047-17.402-10.047-38.848 0-56.25 10.051-17.402 28.617-28.125 48.715-28.125h123.49l32.008-32.008h-0.003906c3.5156-3.5156 8.2852-5.4922 13.258-5.4922h112.5v37.5h-104.74l-32.008 32.008h0.003906c-3.5156 3.5156-8.2852 5.4922-13.258 5.4922h-131.25c-6.6992 0-12.887 3.5742-16.238 9.375-3.3477 5.8008-3.3477 12.949 0 18.75 3.3516 5.8008 9.5391 9.375 16.238 9.375h112.5c4.9727 0 9.7422 1.9766 13.258 5.4922l50.754 50.758h235.99z"></path><path d="m525 843.75c-4.9727 0-9.7422-1.9766-13.258-5.4922l-75-75c-3.5117-3.5195-5.4883-8.2852-5.4883-13.258s1.9766-9.7383 5.4883-13.258l412.5-412.5c3.5195-3.5117 8.2852-5.4883 13.258-5.4883s9.7383 1.9766 13.258 5.4883l75 75c3.5117 3.5195 5.4883 8.2852 5.4883 13.258s-1.9766 9.7383-5.4883 13.258l-262.5 262.5-26.512-26.512 249.24-249.25-48.488-48.488-385.99 385.99 48.488 48.488 61.742-61.742 26.512 26.512-75 75h0.003906c-3.5156 3.5156-8.2852 5.4922-13.258 5.4922z"></path><path d="m774.25 425.76 26.516-26.516 75 75-26.516 26.516z"></path><path d="m1181.2 862.5h-150c-4.9727 0-9.7422-1.9766-13.258-5.4922-3.5156-3.5156-5.4922-8.2852-5.4922-13.258v-300c0-4.9727 1.9766-9.7422 5.4922-13.258 3.5156-3.5156 8.2852-5.4922 13.258-5.4922h150c4.9727 0 9.7422 1.9766 13.258 5.4922 3.5156 3.5156 5.4922 8.2852 5.4922 13.258v300c0 4.9727-1.9766 9.7422-5.4922 13.258-3.5156 3.5156-8.2852 5.4922-13.258 5.4922zm-131.25-37.5h112.5v-262.5h-112.5z"></path><path d="m506.25 712.5h-37.5v-131.25c0-4.9727 1.9766-9.7422 5.4922-13.258l206.25-206.25c3.5156-3.5156 8.2852-5.4922 13.258-5.4922h131.25v37.5h-123.49l-195.26 195.26z"></path><path d="m886.75 463.26 26.516-26.516 131.24 131.24-26.516 26.516z"></path><path d="m243.75 637.5c-64.648 0-126.64-25.68-172.36-71.395-45.715-45.711-71.395-107.71-71.395-172.36s25.68-126.64 71.395-172.36c45.711-45.715 107.71-71.395 172.36-71.395s126.64 25.68 172.36 71.395c45.715 45.711 71.395 107.71 71.395 172.36-0.074219 64.625-25.777 126.58-71.477 172.27-45.695 45.699-107.65 71.402-172.27 71.477zm0-450c-54.699 0-107.16 21.73-145.84 60.41-38.68 38.68-60.41 91.141-60.41 145.84s21.73 107.16 60.41 145.84c38.68 38.68 91.141 60.41 145.84 60.41s107.16-21.73 145.84-60.41c38.68-38.68 60.41-91.141 60.41-145.84-0.066406-54.68-21.816-107.11-60.48-145.77-38.664-38.664-91.09-60.414-145.77-60.48z"></path><path d="m243.75 562.5c-44.754 0-87.676-17.777-119.32-49.426-31.648-31.648-49.426-74.57-49.426-119.32s17.777-87.676 49.426-119.32c31.648-31.648 74.57-49.426 119.32-49.426s87.676 17.777 119.32 49.426c31.648 31.648 49.426 74.57 49.426 119.32-0.054688 44.738-17.852 87.629-49.484 119.27-31.637 31.633-74.527 49.43-119.27 49.484zm0-300c-34.809 0-68.195 13.828-92.809 38.441-24.613 24.613-38.441 58-38.441 92.809s13.828 68.195 38.441 92.809c24.613 24.613 58 38.441 92.809 38.441s68.195-13.828 92.809-38.441c24.613-24.613 38.441-58 38.441-92.809-0.039062-34.797-13.879-68.16-38.484-92.766s-57.969-38.445-92.766-38.484z"></path><path d="m281.25 412.5h-75c-4.9727 0-9.7422-1.9766-13.258-5.4922l-18.75-18.75c-3.5156-3.5156-5.4922-8.2852-5.4922-13.258v-37.5c0-4.9727 1.9766-9.7422 5.4922-13.258l18.75-18.75c3.5156-3.5156 8.2852-5.4922 13.258-5.4922h75c4.9727 0 9.7422 1.9766 13.258 5.4922l18.75 18.75c3.5156 3.5156 5.4922 8.2852 5.4922 13.258v18.75h-37.5v-10.988l-7.7617-7.7617h-59.477l-7.7617 7.7617v21.977l7.7617 7.7617h67.238z"></path><path d="m281.25 487.5h-75c-4.9727 0-9.7422-1.9766-13.258-5.4922l-18.75-18.75c-3.5156-3.5156-5.4922-8.2852-5.4922-13.258v-18.75h37.5v10.988l7.7617 7.7617h59.477l7.7617-7.7617v-21.977l-7.7617-7.7617h-67.238v-37.5h75c4.9727 0 9.7422 1.9766 13.258 5.4922l18.75 18.75c3.5156 3.5156 5.4922 8.2852 5.4922 13.258v37.5c0 4.9727-1.9766 9.7422-5.4922 13.258l-18.75 18.75c-3.5156 3.5156-8.2852 5.4922-13.258 5.4922z"></path><path d="m225 281.25h37.5v37.5h-37.5z"></path><path d="m225 468.75h37.5v37.5h-37.5z"></path><path d="m750 75h262.5v37.5h-262.5z"></path><path d="m787.5 150h225v37.5h-225z"></path><path d="m937.5 1087.5h-337.5c-4.9727 0-9.7422-1.9766-13.258-5.4922-3.5156-3.5156-5.4922-8.2852-5.4922-13.258v-75c0-4.9727 1.9766-9.7422 5.4922-13.258 3.5156-3.5156 8.2852-5.4922 13.258-5.4922h206.25v-37.5h-375v-37.5h393.75c4.9727 0 9.7422 1.9766 13.258 5.4922 3.5156 3.5156 5.4922 8.2852 5.4922 13.258v75c0 4.9727-1.9766 9.7422-5.4922 13.258-3.5156 3.5156-8.2852 5.4922-13.258 5.4922h-206.25v37.5h318.75z"></path><path d="m975 1050h37.5v37.5h-37.5z"></path></g></svg>