<svg xmlns="http://www.w3.org/2000/svg" width="1200pt" height="1200pt" viewBox="0 0 1200 1200"><g fill="#05b347"><path d="m281.25 1200c-4.9727 0-9.7422-1.9766-13.258-5.4922l-225-225c-3.5117-3.5195-5.4883-8.2852-5.4883-13.258s1.9766-9.7422 5.4922-13.258c3.5156-3.5156 8.2812-5.4922 13.254-5.4922h225c4.9727 0 9.7422 1.9766 13.258 5.4922 3.5156 3.5156 5.4922 8.2852 5.4922 13.258v225c0 3.707-1.0977 7.332-3.1562 10.418-2.0586 3.082-4.9883 5.4883-8.4141 6.9062-2.2734 0.94922-4.7148 1.4336-7.1797 1.4258zm-179.74-225 160.99 160.99v-160.99z"></path><path d="m975 1200h-693.75c-4.9727 0-9.7422-1.9766-13.258-5.4922l-225-225c-3.5156-3.5156-5.4922-8.2852-5.4922-13.258v-937.5c0-4.9727 1.9766-9.7422 5.4922-13.258 3.5156-3.5156 8.2852-5.4922 13.258-5.4922h937.5c4.9727 0 9.7422 1.9766 13.258 5.4922 3.5156 3.5156 5.4922 8.2852 5.4922 13.258v93.75h-37.5v-75h-900v910.99l214.01 214.01h685.99z"></path><path d="m1050 1200c-4.9727 0-9.7422-1.9766-13.258-5.4922l-206.25-206.25c-3.5117-3.5195-5.4883-8.2852-5.4883-13.258s1.9766-9.7383 5.4883-13.258l93.75-93.75c3.5195-3.5117 8.2852-5.4883 13.258-5.4883s9.7383 1.9766 13.258 5.4883l206.25 206.25c3.5117 3.5195 5.4883 8.2852 5.4883 13.258s-1.9766 9.7383-5.4883 13.258l-93.75 93.75c-3.5156 3.5156-8.2852 5.4922-13.258 5.4922zm-179.74-225 179.74 179.74 67.238-67.238-179.74-179.74z"></path><path d="m755.48 857.01 26.516-26.516 112.5 112.5-26.516 26.516z"></path><path d="m792.98 819.5 26.516-26.516 112.5 112.5-26.516 26.516z"></path><path d="m886.73 1018 93.75-93.75 26.516 26.516-93.75 93.75z"></path><path d="m525 956.25c-104.43 0-204.58-41.484-278.42-115.33-73.844-73.84-115.33-173.99-115.33-278.42s41.484-204.58 115.33-278.42c73.84-73.844 173.99-115.33 278.42-115.33v37.5c-94.484 0-185.1 37.535-251.91 104.34s-104.34 157.42-104.34 251.91 37.535 185.1 104.34 251.91 157.42 104.34 251.91 104.34 185.1-37.535 251.91-104.34 104.34-157.42 104.34-251.91h37.5c-0.11719 104.39-41.641 204.48-115.46 278.29-73.816 73.816-173.9 115.34-278.29 115.46z"></path><path d="m525 881.25c-84.539 0-165.61-33.582-225.39-93.359s-93.359-140.85-93.359-225.39 33.582-165.61 93.359-225.39 140.85-93.359 225.39-93.359v37.5c-74.594 0-146.13 29.633-198.88 82.375-52.742 52.746-82.375 124.28-82.375 198.88s29.633 146.13 82.375 198.88c52.746 52.742 124.28 82.375 198.88 82.375s146.13-29.633 198.88-82.375c52.742-52.746 82.375-124.28 82.375-198.88h37.5c-0.09375 84.508-33.707 165.53-93.465 225.29-59.754 59.758-140.78 93.371-225.29 93.465z"></path><path d="m825 543.75h-75c-4.9727 0-9.7422-1.9766-13.258-5.4922-3.5156-3.5156-5.4922-8.2852-5.4922-13.258v-26.531c-15.426-4.375-30.285-10.551-44.27-18.395l-18.75 18.75c-3.5156 3.5156-8.2852 5.4922-13.254 5.4922-4.9727 0-9.7422-1.9766-13.258-5.4922l-53.023-53.023c-3.5156-3.5156-5.4922-8.2852-5.4922-13.258 0-4.9727 1.9766-9.7383 5.4922-13.254l18.75-18.75c-7.8555-13.992-14.035-28.855-18.414-44.289h-26.531c-4.9727 0-9.7422-1.9766-13.258-5.4922-3.5156-3.5156-5.4922-8.2852-5.4922-13.258v-75c0-4.9727 1.9766-9.7422 5.4922-13.258 3.5156-3.5156 8.2852-5.4922 13.258-5.4922h26.531c4.375-15.426 10.551-30.285 18.395-44.27l-18.75-18.75c-3.5156-3.5156-5.4922-8.2852-5.4922-13.254 0-4.9727 1.9766-9.7422 5.4922-13.258l53.023-53.023c3.5156-3.5156 8.2852-5.4922 13.258-5.4922 4.9727 0 9.7383 1.9766 13.254 5.4922l18.75 18.75c13.992-7.8555 28.855-14.035 44.289-18.414v-26.531c0-4.9727 1.9766-9.7422 5.4922-13.258 3.5156-3.5156 8.2852-5.4922 13.258-5.4922h75c4.9727 0 9.7422 1.9766 13.258 5.4922 3.5156 3.5156 5.4922 8.2852 5.4922 13.258v26.531c15.426 4.375 30.285 10.551 44.27 18.395l18.75-18.75c3.5156-3.5156 8.2852-5.4922 13.254-5.4922 4.9727 0 9.7422 1.9766 13.258 5.4922l53.023 53.023c3.5156 3.5156 5.4922 8.2852 5.4922 13.258 0 4.9727-1.9766 9.7383-5.4922 13.254l-18.75 18.75c7.8555 13.992 14.035 28.855 18.414 44.289h26.531c4.9727 0 9.7422 1.9766 13.258 5.4922 3.5156 3.5156 5.4922 8.2852 5.4922 13.258v75c0 4.9727-1.9766 9.7422-5.4922 13.258-3.5156 3.5156-8.2852 5.4922-13.258 5.4922h-26.531c-4.375 15.426-10.551 30.285-18.395 44.27l18.75 18.75c3.5156 3.5156 5.4922 8.2852 5.4922 13.254 0 4.9727-1.9766 9.7422-5.4922 13.258l-53.023 53.023c-3.5156 3.5156-8.2852 5.4922-13.258 5.4922-4.9727 0-9.7383-1.9766-13.254-5.4922l-18.75-18.75c-13.992 7.8555-28.855 14.035-44.289 18.414v26.531c0 4.9727-1.9766 9.7422-5.4922 13.258-3.5156 3.5156-8.2852 5.4922-13.258 5.4922zm-56.25-37.5h37.5v-22.5c-0.003906-4.3242 1.4844-8.5195 4.2188-11.871 2.7344-3.3555 6.543-5.6562 10.781-6.5234 21.148-4.2773 41.258-12.633 59.211-24.598 3.6094-2.3906 7.9336-3.4609 12.238-3.0273 4.3086 0.43359 8.332 2.3438 11.387 5.4062l15.977 15.977 26.512-26.512-15.977-15.977h0.003906c-3.0625-3.0586-4.9688-7.0859-5.3984-11.391s0.64062-8.6289 3.0352-12.234c11.961-17.973 20.32-38.094 24.617-59.25 0.86719-4.2344 3.168-8.043 6.5156-10.773 3.3477-2.7344 7.5391-4.2266 11.859-4.2266h22.52v-37.5h-22.5c-4.3242 0-8.5117-1.4922-11.859-4.2266-3.3516-2.7305-5.6523-6.5391-6.5156-10.773-4.2969-21.141-12.648-41.25-24.602-59.211-2.3906-3.6055-3.4648-7.9297-3.0312-12.234 0.42969-4.3086 2.3359-8.332 5.3945-11.391l15.977-15.977-26.531-26.531-15.977 15.977c-3.0586 3.0625-7.082 4.9727-11.387 5.4062-4.3047 0.43359-8.6289-0.63672-12.238-3.0273-17.957-11.969-38.078-20.324-59.23-24.598-4.2422-0.86719-8.0508-3.1758-10.785-6.5312-2.7344-3.3555-4.2227-7.5547-4.2148-11.883v-22.5h-37.5v22.5c0.003906 4.3242-1.4844 8.5195-4.2188 11.871-2.7344 3.3555-6.543 5.6562-10.781 6.5234-21.148 4.2773-41.258 12.633-59.211 24.598-3.6094 2.3906-7.9336 3.4609-12.238 3.0273-4.3086-0.43359-8.332-2.3438-11.387-5.4062l-15.977-15.977-26.531 26.531 15.977 15.977c3.0586 3.0586 4.9648 7.0859 5.3945 11.391 0.42969 4.3047-0.64062 8.6289-3.0352 12.234-11.949 17.965-20.305 38.082-24.598 59.23-0.86719 4.2344-3.168 8.043-6.5156 10.773-3.3477 2.7344-7.5391 4.2266-11.859 4.2266h-22.52v37.5h22.5c4.3242 0 8.5117 1.4922 11.859 4.2266 3.3516 2.7305 5.6523 6.5391 6.5156 10.773 4.2969 21.141 12.648 41.25 24.602 59.211 2.3906 3.6055 3.4648 7.9297 3.0312 12.234-0.42969 4.3086-2.3359 8.332-5.3945 11.391l-15.977 15.977 26.512 26.512 15.977-15.977v0.003906c3.0586-3.0625 7.082-4.9727 11.387-5.4102 4.3086-0.43359 8.6289 0.63672 12.238 3.0273 17.965 11.977 38.09 20.34 59.25 24.617 4.2383 0.86719 8.0469 3.1719 10.781 6.5234s4.2227 7.5469 4.2188 11.871z"></path><path d="m975 487.5h37.5v375h-37.5z"></path><path d="m787.5 431.25c-34.809 0-68.195-13.828-92.809-38.441-24.613-24.613-38.441-58-38.441-92.809s13.828-68.195 38.441-92.809c24.613-24.613 58-38.441 92.809-38.441s68.195 13.828 92.809 38.441c24.613 24.613 38.441 58 38.441 92.809-0.039062 34.797-13.879 68.16-38.484 92.766s-57.969 38.445-92.766 38.484zm0-225c-24.863 0-48.711 9.8789-66.293 27.457-17.578 17.582-27.457 41.43-27.457 66.293s9.8789 48.711 27.457 66.293c17.582 17.578 41.43 27.457 66.293 27.457s48.711-9.8789 66.293-27.457c17.578-17.582 27.457-41.43 27.457-66.293-0.03125-24.855-9.918-48.684-27.492-66.258-17.574-17.574-41.402-27.461-66.258-27.492z"></path><path d="m525 768.75c-54.699 0-107.16-21.73-145.84-60.41-38.68-38.68-60.41-91.141-60.41-145.84s21.73-107.16 60.41-145.84c38.68-38.68 91.141-60.41 145.84-60.41 4.9727 0 9.7422 1.9766 13.258 5.4922 3.5156 3.5156 5.4922 8.2852 5.4922 13.258v355.2c41.23-4.6602 79.309-24.328 106.97-55.254 27.664-30.926 42.98-70.953 43.031-112.45h37.5c-0.066406 54.68-21.816 107.11-60.48 145.77-38.664 38.664-91.09 60.414-145.77 60.48zm-18.75-373.95c-41.242 4.6211-79.336 24.281-107 55.215-27.66 30.938-42.953 70.984-42.953 112.48s15.293 81.547 42.953 112.48c27.664 30.934 65.758 50.594 107 55.215z"></path><path d="m511.74 575.76 26.516-26.516 131.24 131.24-26.516 26.516z"></path><path d="m112.5 75h168.75v37.5h-168.75z"></path><path d="m112.5 150h131.25v37.5h-131.25z"></path><path d="m318.75 75h37.5v37.5h-37.5z"></path></g></svg>